<svg xmlns="http://www.w3.org/2000/svg" width="800" height="600" viewBox="0 0 800 600"><!-- Table en chêne de la section « Deux soirées » (components/marketing/vitrine/DeuxSoirees.tsx). Veines : traits fins déformés par un bruit étiré. --><filter id="d" x="-5%" y="-5%" width="110%" height="110%"><feTurbulence type="fractalNoise" baseFrequency="0.0035 0.018" numOctaves="2" seed="3" result="n"/><feDisplacementMap in="SourceGraphic" in2="n" scale="46" xChannelSelector="R" yChannelSelector="G"/></filter><rect width="800" height="600" fill="#c29266"/><g fill="none" filter="url(#d)"><path d="M-40 0.0H840" stroke="#5a3519" stroke-width="1.22" opacity="0.30"/><path d="M-40 2.2H840" stroke="#8a5a33" stroke-width="0.87" opacity="0.39"/><path d="M-40 6.6H840" stroke="#8a5a33" stroke-width="0.75" opacity="0.27"/><path d="M-40 12.1H840" stroke="#5a3519" stroke-width="1.11" opacity="0.42"/><path d="M-40 18.3H840" stroke="#8a5a33" stroke-width="0.58" opacity="0.27"/><path d="M-40 23.9H840" stroke="#8a5a33" stroke-width="1.00" opacity="0.37"/><path d="M-40 27.1H840" stroke="#8a5a33" stroke-width="1.22" opacity="0.18"/><path d="M-40 30.1H840" stroke="#8a5a33" stroke-width="1.14" opacity="0.19"/><path d="M-40 34.0H840" stroke="#8a5a33" stroke-width="0.97" opacity="0.22"/><path d="M-40 39.1H840" stroke="#8a5a33" stroke-width="0.79" opacity="0.54"/><path d="M-40 41.1H840" stroke="#8a5a33" stroke-width="1.23" opacity="0.56"/><path d="M-40 44.6H840" stroke="#5a3519" stroke-width="1.78" opacity="0.56"/><path d="M-40 50.2H840" stroke="#8a5a33" stroke-width="1.22" opacity="0.35"/><path d="M-40 53.5H840" stroke="#8a5a33" stroke-width="0.52" opacity="0.56"/><path d="M-40 59.7H840" stroke="#8a5a33" stroke-width="1.29" opacity="0.18"/><path d="M-40 65.0H840" stroke="#8a5a33" stroke-width="0.99" opacity="0.45"/><path d="M-40 69.6H840" stroke="#8a5a33" stroke-width="0.89" opacity="0.55"/><path d="M-40 76.5H840" stroke="#8a5a33" stroke-width="1.23" opacity="0.38"/><path d="M-40 79.7H840" stroke="#5a3519" stroke-width="0.58" opacity="0.51"/><path d="M-40 82.2H840" stroke="#8a5a33" stroke-width="1.00" opacity="0.33"/><path d="M-40 86.6H840" stroke="#5a3519" stroke-width="1.11" opacity="0.25"/><path d="M-40 91.4H840" stroke="#8a5a33" stroke-width="1.33" opacity="0.22"/><path d="M-40 98.3H840" stroke="#8a5a33" stroke-width="1.20" opacity="0.41"/><path d="M-40 102.2H840" stroke="#8a5a33" stroke-width="1.08" opacity="0.38"/><path d="M-40 105.7H840" stroke="#8a5a33" stroke-width="0.73" opacity="0.56"/><path d="M-40 110.6H840" stroke="#8a5a33" stroke-width="0.63" opacity="0.24"/><path d="M-40 117.4H840" stroke="#8a5a33" stroke-width="0.76" opacity="0.51"/><path d="M-40 121.2H840" stroke="#8a5a33" stroke-width="0.93" opacity="0.38"/><path d="M-40 124.3H840" stroke="#5a3519" stroke-width="1.78" opacity="0.53"/><path d="M-40 127.7H840" stroke="#8a5a33" stroke-width="0.81" opacity="0.52"/><path d="M-40 131.8H840" stroke="#5a3519" stroke-width="0.53" opacity="0.19"/><path d="M-40 136.6H840" stroke="#8a5a33" stroke-width="1.23" opacity="0.31"/><path d="M-40 141.8H840" stroke="#8a5a33" stroke-width="0.94" opacity="0.48"/><path d="M-40 144.7H840" stroke="#8a5a33" stroke-width="0.95" opacity="0.28"/><path d="M-40 148.0H840" stroke="#8a5a33" stroke-width="1.06" opacity="0.36"/><path d="M-40 151.5H840" stroke="#8a5a33" stroke-width="0.96" opacity="0.23"/><path d="M-40 156.7H840" stroke="#8a5a33" stroke-width="0.95" opacity="0.40"/><path d="M-40 159.7H840" stroke="#8a5a33" stroke-width="0.84" opacity="0.22"/><path d="M-40 164.6H840" stroke="#8a5a33" stroke-width="0.68" opacity="0.38"/><path d="M-40 171.2H840" stroke="#8a5a33" stroke-width="0.65" opacity="0.52"/><path d="M-40 177.4H840" stroke="#8a5a33" stroke-width="0.72" opacity="0.29"/><path d="M-40 180.5H840" stroke="#8a5a33" stroke-width="1.33" opacity="0.46"/><path d="M-40 185.4H840" stroke="#8a5a33" stroke-width="0.96" opacity="0.36"/><path d="M-40 191.1H840" stroke="#5a3519" stroke-width="1.75" opacity="0.49"/><path d="M-40 193.2H840" stroke="#8a5a33" stroke-width="0.94" opacity="0.43"/><path d="M-40 195.2H840" stroke="#8a5a33" stroke-width="1.38" opacity="0.54"/><path d="M-40 198.4H840" stroke="#5a3519" stroke-width="1.09" opacity="0.37"/><path d="M-40 205.4H840" stroke="#8a5a33" stroke-width="0.92" opacity="0.25"/><path d="M-40 210.3H840" stroke="#8a5a33" stroke-width="1.39" opacity="0.31"/><path d="M-40 212.7H840" stroke="#8a5a33" stroke-width="1.36" opacity="0.51"/><path d="M-40 215.0H840" stroke="#8a5a33" stroke-width="1.15" opacity="0.52"/><path d="M-40 219.5H840" stroke="#8a5a33" stroke-width="0.66" opacity="0.54"/><path d="M-40 224.8H840" stroke="#5a3519" stroke-width="1.39" opacity="0.32"/><path d="M-40 230.0H840" stroke="#8a5a33" stroke-width="0.52" opacity="0.40"/><path d="M-40 236.4H840" stroke="#8a5a33" stroke-width="1.19" opacity="0.24"/><path d="M-40 239.4H840" stroke="#8a5a33" stroke-width="1.20" opacity="0.22"/><path d="M-40 245.0H840" stroke="#8a5a33" stroke-width="0.84" opacity="0.32"/><path d="M-40 249.5H840" stroke="#5a3519" stroke-width="0.63" opacity="0.39"/><path d="M-40 255.5H840" stroke="#8a5a33" stroke-width="0.98" opacity="0.56"/><path d="M-40 261.9H840" stroke="#8a5a33" stroke-width="1.32" opacity="0.37"/><path d="M-40 267.2H840" stroke="#8a5a33" stroke-width="1.25" opacity="0.24"/><path d="M-40 273.6H840" stroke="#5a3519" stroke-width="1.02" opacity="0.58"/><path d="M-40 279.0H840" stroke="#8a5a33" stroke-width="1.20" opacity="0.18"/><path d="M-40 281.1H840" stroke="#8a5a33" stroke-width="0.50" opacity="0.38"/><path d="M-40 286.1H840" stroke="#8a5a33" stroke-width="0.94" opacity="0.28"/><path d="M-40 289.1H840" stroke="#8a5a33" stroke-width="0.60" opacity="0.20"/><path d="M-40 295.6H840" stroke="#8a5a33" stroke-width="1.33" opacity="0.32"/><path d="M-40 299.3H840" stroke="#8a5a33" stroke-width="0.75" opacity="0.37"/><path d="M-40 303.4H840" stroke="#8a5a33" stroke-width="1.37" opacity="0.43"/><path d="M-40 306.0H840" stroke="#8a5a33" stroke-width="1.06" opacity="0.44"/><path d="M-40 308.6H840" stroke="#5a3519" stroke-width="0.70" opacity="0.22"/><path d="M-40 314.6H840" stroke="#8a5a33" stroke-width="0.52" opacity="0.38"/><path d="M-40 318.5H840" stroke="#8a5a33" stroke-width="1.35" opacity="0.22"/><path d="M-40 324.2H840" stroke="#8a5a33" stroke-width="1.25" opacity="0.41"/><path d="M-40 326.8H840" stroke="#8a5a33" stroke-width="1.38" opacity="0.44"/><path d="M-40 332.5H840" stroke="#8a5a33" stroke-width="0.75" opacity="0.33"/><path d="M-40 339.3H840" stroke="#8a5a33" stroke-width="1.02" opacity="0.38"/><path d="M-40 343.9H840" stroke="#8a5a33" stroke-width="0.76" opacity="0.34"/><path d="M-40 349.8H840" stroke="#5a3519" stroke-width="1.25" opacity="0.43"/><path d="M-40 355.5H840" stroke="#8a5a33" stroke-width="1.20" opacity="0.32"/><path d="M-40 359.8H840" stroke="#8a5a33" stroke-width="0.61" opacity="0.23"/><path d="M-40 364.2H840" stroke="#8a5a33" stroke-width="1.23" opacity="0.35"/><path d="M-40 368.5H840" stroke="#8a5a33" stroke-width="1.17" opacity="0.52"/><path d="M-40 370.9H840" stroke="#8a5a33" stroke-width="1.32" opacity="0.27"/><path d="M-40 374.2H840" stroke="#5a3519" stroke-width="1.88" opacity="0.21"/><path d="M-40 380.2H840" stroke="#8a5a33" stroke-width="0.89" opacity="0.44"/><path d="M-40 382.3H840" stroke="#8a5a33" stroke-width="0.85" opacity="0.21"/><path d="M-40 386.0H840" stroke="#8a5a33" stroke-width="0.56" opacity="0.46"/><path d="M-40 389.3H840" stroke="#8a5a33" stroke-width="1.10" opacity="0.52"/><path d="M-40 394.6H840" stroke="#8a5a33" stroke-width="1.20" opacity="0.56"/><path d="M-40 400.4H840" stroke="#5a3519" stroke-width="0.76" opacity="0.19"/><path d="M-40 402.7H840" stroke="#5a3519" stroke-width="0.65" opacity="0.55"/><path d="M-40 408.1H840" stroke="#8a5a33" stroke-width="0.76" opacity="0.43"/><path d="M-40 410.1H840" stroke="#8a5a33" stroke-width="0.72" opacity="0.49"/><path d="M-40 416.0H840" stroke="#8a5a33" stroke-width="1.22" opacity="0.34"/><path d="M-40 419.4H840" stroke="#8a5a33" stroke-width="1.09" opacity="0.21"/><path d="M-40 422.8H840" stroke="#8a5a33" stroke-width="0.54" opacity="0.36"/><path d="M-40 429.2H840" stroke="#8a5a33" stroke-width="1.34" opacity="0.43"/><path d="M-40 432.3H840" stroke="#8a5a33" stroke-width="0.56" opacity="0.35"/><path d="M-40 437.8H840" stroke="#8a5a33" stroke-width="1.39" opacity="0.29"/><path d="M-40 441.7H840" stroke="#5a3519" stroke-width="1.93" opacity="0.28"/><path d="M-40 447.7H840" stroke="#8a5a33" stroke-width="0.57" opacity="0.57"/><path d="M-40 450.2H840" stroke="#8a5a33" stroke-width="0.87" opacity="0.22"/><path d="M-40 452.9H840" stroke="#8a5a33" stroke-width="0.98" opacity="0.35"/><path d="M-40 457.9H840" stroke="#8a5a33" stroke-width="1.19" opacity="0.56"/><path d="M-40 461.2H840" stroke="#8a5a33" stroke-width="0.73" opacity="0.19"/><path d="M-40 466.8H840" stroke="#8a5a33" stroke-width="1.09" opacity="0.24"/><path d="M-40 469.7H840" stroke="#8a5a33" stroke-width="0.82" opacity="0.38"/><path d="M-40 474.9H840" stroke="#8a5a33" stroke-width="1.27" opacity="0.57"/><path d="M-40 477.0H840" stroke="#8a5a33" stroke-width="0.79" opacity="0.24"/><path d="M-40 480.9H840" stroke="#8a5a33" stroke-width="0.62" opacity="0.37"/><path d="M-40 487.4H840" stroke="#8a5a33" stroke-width="0.81" opacity="0.46"/><path d="M-40 489.8H840" stroke="#8a5a33" stroke-width="1.18" opacity="0.45"/><path d="M-40 493.7H840" stroke="#5a3519" stroke-width="1.29" opacity="0.55"/><path d="M-40 496.8H840" stroke="#8a5a33" stroke-width="1.26" opacity="0.49"/><path d="M-40 502.1H840" stroke="#8a5a33" stroke-width="1.29" opacity="0.46"/><path d="M-40 506.0H840" stroke="#8a5a33" stroke-width="1.37" opacity="0.54"/><path d="M-40 509.6H840" stroke="#8a5a33" stroke-width="0.77" opacity="0.28"/><path d="M-40 511.7H840" stroke="#5a3519" stroke-width="2.00" opacity="0.42"/><path d="M-40 517.4H840" stroke="#8a5a33" stroke-width="1.01" opacity="0.23"/><path d="M-40 520.4H840" stroke="#8a5a33" stroke-width="1.14" opacity="0.31"/><path d="M-40 526.8H840" stroke="#8a5a33" stroke-width="0.92" opacity="0.29"/><path d="M-40 532.6H840" stroke="#8a5a33" stroke-width="0.91" opacity="0.38"/><path d="M-40 535.8H840" stroke="#8a5a33" stroke-width="0.95" opacity="0.31"/><path d="M-40 539.8H840" stroke="#8a5a33" stroke-width="0.89" opacity="0.26"/><path d="M-40 542.7H840" stroke="#8a5a33" stroke-width="0.58" opacity="0.37"/><path d="M-40 547.5H840" stroke="#5a3519" stroke-width="1.82" opacity="0.25"/><path d="M-40 553.3H840" stroke="#8a5a33" stroke-width="0.75" opacity="0.33"/><path d="M-40 557.5H840" stroke="#8a5a33" stroke-width="1.25" opacity="0.20"/><path d="M-40 560.5H840" stroke="#8a5a33" stroke-width="1.35" opacity="0.36"/><path d="M-40 565.5H840" stroke="#8a5a33" stroke-width="1.14" opacity="0.38"/><path d="M-40 571.1H840" stroke="#8a5a33" stroke-width="1.17" opacity="0.24"/><path d="M-40 576.2H840" stroke="#8a5a33" stroke-width="0.66" opacity="0.28"/><path d="M-40 582.6H840" stroke="#5a3519" stroke-width="1.04" opacity="0.43"/><path d="M-40 588.6H840" stroke="#8a5a33" stroke-width="0.83" opacity="0.50"/><path d="M-40 594.4H840" stroke="#8a5a33" stroke-width="0.64" opacity="0.28"/><path d="M-40 596.7H840" stroke="#8a5a33" stroke-width="1.04" opacity="0.52"/><path d="M-40 600.4H840" stroke="#8a5a33" stroke-width="0.81" opacity="0.26"/><path d="M-40 605.9H840" stroke="#8a5a33" stroke-width="0.76" opacity="0.44"/><path d="M-40 612.8H840" stroke="#8a5a33" stroke-width="0.51" opacity="0.35"/><path d="M-40 618.0H840" stroke="#8a5a33" stroke-width="1.07" opacity="0.26"/><path d="M-40 621.0H840" stroke="#5a3519" stroke-width="1.11" opacity="0.51"/><path d="M-40 627.0H840" stroke="#8a5a33" stroke-width="0.95" opacity="0.45"/><path d="M-40 633.1H840" stroke="#8a5a33" stroke-width="0.69" opacity="0.54"/><path d="M-40 635.4H840" stroke="#8a5a33" stroke-width="1.17" opacity="0.34"/><path d="M-40 637.6H840" stroke="#8a5a33" stroke-width="0.78" opacity="0.45"/><path d="M-40 639.9H840" stroke="#8a5a33" stroke-width="0.93" opacity="0.48"/></g><rect y="148" width="800" height="2.5" fill="#3d2513" opacity="0.4"/><rect y="150.5" width="800" height="1" fill="#fff" opacity="0.12"/><rect y="300" width="800" height="2.5" fill="#3d2513" opacity="0.4"/><rect y="302.5" width="800" height="1" fill="#fff" opacity="0.12"/><rect y="452" width="800" height="2.5" fill="#3d2513" opacity="0.4"/><rect y="454.5" width="800" height="1" fill="#fff" opacity="0.12"/></svg>